<svg id="Layer_1" data-name="Layer 1" xmlns="http://www.w3.org/2000/svg" viewBox="0 0 669.7 246.21"><defs><style>.cls-1{fill:#075a85;}</style></defs><path class="cls-1" d="M309.6,167.88l-131.3-.8c-15.3,0-21.6,4.3-21.6,20.1l.1,56c-.2,14,5.7,20,20.1,19.8l61.8-.4c40.7-2.3,77.5-31.9,88.4-69.7C332.1,175.48,327.7,168.48,309.6,167.88Zm-121.1,62.5v-31.2H289.1C263.2,239.28,225.3,230.58,188.5,230.38Z" transform="translate(-156.7 -16.77)"/><path class="cls-1" d="M178.4,112.58l131.3-.8c18.1-.6,22.5-7.5,17.4-24.9-10.9-37.8-47.7-67.4-88.4-69.7l-61.8-.4c-14.4-.2-20.3,5.8-20.1,19.8l-.1,56C156.8,108.18,163,112.58,178.4,112.58Zm10.1-63.3c36.8-.2,74.6-8.9,100.6,31.2H188.5Z" transform="translate(-156.7 -16.77)"/><path class="cls-1" d="M308.8,127.48H177.3c-10.6.1-20.4,0-20.4,12.3,0,11.1,10.5,13.1,20.3,12.9l132.8,1c11.7,0,18.9-5.8,18.9-13.8C328.9,132.28,323.6,127.38,308.8,127.48Z" transform="translate(-156.7 -16.77)"/><path class="cls-1" d="M397.4,263a49.17,49.17,0,0,1-49-49v-15.8c0-14,4.4-25.6,13.2-35s19.9-14,33.1-14h.4c13.2,0,24.3,4.7,33.1,14s13.2,21,13.2,35V206a12.53,12.53,0,0,1-3.6,9,12.23,12.23,0,0,1-9,3.7H374.3a22,22,0,0,0,8.2,13.4,23,23,0,0,0,15,5.4h.4a22.76,22.76,0,0,0,19.1-9.6,12.35,12.35,0,0,1,8.3-5,12.76,12.76,0,0,1,9.5,2.3,12.95,12.95,0,0,1,2.6,17.8,49.16,49.16,0,0,1-39.4,19.9h-.6Zm18.2-69.5a23.68,23.68,0,0,0-6.2-13.1q-5.55-5.7-14.4-5.7h-.4a19.52,19.52,0,0,0-14.4,5.7,23.68,23.68,0,0,0-6.2,13.1Z" transform="translate(-156.7 -16.77)"/><path class="cls-1" d="M547.9,259.28a11.85,11.85,0,0,1-3.7-8.9v-52a22.8,22.8,0,0,0-6.9-16.7,22.51,22.51,0,0,0-16.7-7h-.4a23.9,23.9,0,0,0-23.7,23.7v52A12.46,12.46,0,0,1,483.9,263a12.63,12.63,0,0,1-12.6-12.6v-52a49.17,49.17,0,0,1,49-49h.4a49.17,49.17,0,0,1,49,49v52a11.85,11.85,0,0,1-3.7,8.9,12.16,12.16,0,0,1-8.9,3.7A12.36,12.36,0,0,1,547.9,259.28Z" transform="translate(-156.7 -16.77)"/><path class="cls-1" d="M680.3,259.28a11.85,11.85,0,0,1-3.7-8.9v-52a22.8,22.8,0,0,0-6.9-16.7,22.51,22.51,0,0,0-16.7-7h-.4a23.9,23.9,0,0,0-23.7,23.7v52A12.46,12.46,0,0,1,616.3,263a12.63,12.63,0,0,1-12.6-12.6v-52a49.17,49.17,0,0,1,49-49h.4a49.17,49.17,0,0,1,49,49v52a11.85,11.85,0,0,1-3.7,8.9,12.16,12.16,0,0,1-8.9,3.7A12.36,12.36,0,0,1,680.3,259.28Z" transform="translate(-156.7 -16.77)"/><path class="cls-1" d="M826.4,250.38A12.63,12.63,0,0,1,813.8,263a11.72,11.72,0,0,1-11.2-6.9,48.15,48.15,0,0,1-25.1,6.9H777a49.17,49.17,0,0,1-48.9-48.9v-15.7a49.17,49.17,0,0,1,48.9-49h.4a49.17,49.17,0,0,1,49,49Zm-49-12.6a23.73,23.73,0,0,0,23.7-23.6v-15.7a23.9,23.9,0,0,0-23.7-23.7H777a23.73,23.73,0,0,0-23.6,23.7v15.7a23.56,23.56,0,0,0,23.6,23.6Z" transform="translate(-156.7 -16.77)"/></svg>