<?xml version="1.0" encoding="utf-8"?>
<!-- Generator: Adobe Illustrator 25.2.1, SVG Export Plug-In . SVG Version: 6.00 Build 0)  -->
<svg version="1.1" id="Layer_1" xmlns="http://www.w3.org/2000/svg" xmlns:xlink="http://www.w3.org/1999/xlink" x="0px" y="0px"
	 viewBox="0 0 1000 274.4" style="enable-background:new 0 0 1000 274.4;" xml:space="preserve">
<style type="text/css">
	.st0{display:none;fill:#FFFFFF;}
	.st1{fill:#FFFFFF;}
	.st2{display:none;enable-background:new    ;}
	.st3{font-family:'MAXWELLBOLD';}
	.st4{font-size:239.4299px;}
	.st5{letter-spacing:10;}
</style>
<rect y="-335.3" class="st0" width="1000" height="1000"/>
<g>
	<path class="st1" d="M309.6,167.9l-131.3-0.8c-15.3,0-21.6,4.3-21.6,20.1l0.1,56c-0.2,14,5.7,20,20.1,19.8l61.8-0.4
		c40.7-2.3,77.5-31.9,88.4-69.7C332.1,175.5,327.7,168.5,309.6,167.9z M188.5,230.4v-31.2h100.6
		C263.2,239.3,225.3,230.6,188.5,230.4z"/>
	<path class="st1" d="M178.4,112.6l131.3-0.8c18.1-0.6,22.5-7.5,17.4-24.9c-10.9-37.8-47.7-67.4-88.4-69.7l-61.8-0.4
		c-14.4-0.2-20.3,5.8-20.1,19.8l-0.1,56C156.8,108.2,163,112.6,178.4,112.6z M188.5,49.3c36.8-0.2,74.6-8.9,100.6,31.2H188.5V49.3z"
		/>
	<path class="st1" d="M308.8,127.5H177.3c-10.6,0.1-20.4,0-20.4,12.3c0,11.1,10.5,13.1,20.3,12.9l132.8,1c11.7,0,18.9-5.8,18.9-13.8
		C328.9,132.3,323.6,127.4,308.8,127.5z"/>
	<text transform="matrix(1 0 0 1 343.0598 263.0251)" class="st2 st3 st4 st5">enna</text>
	<g>
		<path class="st1" d="M397.4,263c-13.5,0-25-4.8-34.6-14.4c-9.6-9.6-14.4-21.1-14.4-34.6v-15.8c0-14,4.4-25.6,13.2-35
			c8.9-9.4,19.9-14,33.1-14h0.4c13.2,0,24.3,4.7,33.1,14c8.8,9.4,13.2,21,13.2,35v7.8c0,3.5-1.2,6.5-3.6,9c-2.5,2.5-5.5,3.7-9,3.7
			h-54.5c1.1,5.5,3.8,9.9,8.2,13.4c4.4,3.6,9.4,5.4,15,5.4h0.4c7.9,0,14.3-3.2,19.1-9.6c2.1-2.8,4.9-4.5,8.3-5
			c3.5-0.5,6.7,0.3,9.5,2.3c2.8,2.1,4.4,4.9,4.9,8.4c0.5,3.4-0.2,6.5-2.3,9.4c-4.6,6.2-10.4,11.1-17.3,14.6
			c-7,3.5-14.4,5.3-22.1,5.3L397.4,263L397.4,263z M415.6,193.5c-0.9-5.4-2.9-9.7-6.2-13.1c-3.7-3.8-8.5-5.7-14.4-5.7h-0.4
			c-5.8,0-10.6,1.9-14.4,5.7c-3.3,3.4-5.3,7.7-6.2,13.1H415.6z"/>
		<path class="st1" d="M547.9,259.3c-2.5-2.4-3.7-5.4-3.7-8.9v-52c0-6.5-2.3-12.1-6.9-16.7c-4.6-4.7-10.2-7-16.7-7h-0.4
			c-6.5,0-12.1,2.3-16.7,7c-4.7,4.6-7,10.2-7,16.7v52c0,3.5-1.2,6.5-3.6,8.9c-2.5,2.5-5.5,3.7-9,3.7s-6.5-1.2-8.9-3.7
			c-2.5-2.4-3.7-5.4-3.7-8.9v-52c0-13.5,4.8-25,14.4-34.6s21.1-14.4,34.6-14.4h0.4c13.5,0,25,4.8,34.6,14.4s14.4,21.1,14.4,34.6v52
			c0,3.5-1.2,6.5-3.7,8.9c-2.5,2.5-5.5,3.7-8.9,3.7C553.4,263,550.4,261.8,547.9,259.3z"/>
		<path class="st1" d="M680.3,259.3c-2.5-2.4-3.7-5.4-3.7-8.9v-52c0-6.5-2.3-12.1-6.9-16.7c-4.6-4.7-10.2-7-16.7-7h-0.4
			c-6.5,0-12.1,2.3-16.7,7c-4.7,4.6-7,10.2-7,16.7v52c0,3.5-1.2,6.5-3.6,8.9c-2.5,2.5-5.5,3.7-9,3.7s-6.5-1.2-8.9-3.7
			c-2.5-2.4-3.7-5.4-3.7-8.9v-52c0-13.5,4.8-25,14.4-34.6c9.6-9.6,21.1-14.4,34.6-14.4h0.4c13.5,0,25,4.8,34.6,14.4
			s14.4,21.1,14.4,34.6v52c0,3.5-1.2,6.5-3.7,8.9c-2.5,2.5-5.5,3.7-8.9,3.7C685.8,263,682.8,261.8,680.3,259.3z"/>
		<path class="st1" d="M826.4,250.4c0,3.5-1.2,6.5-3.7,8.9c-2.4,2.5-5.4,3.7-8.9,3.7c-5.1,0-8.9-2.3-11.2-6.9
			c-7.7,4.6-16.1,6.9-25.1,6.9H777c-13.5,0-25-4.8-34.5-14.4c-9.6-9.5-14.4-21-14.4-34.5v-15.7c0-13.5,4.8-25,14.4-34.6
			c9.5-9.6,21-14.4,34.5-14.4h0.4c13.5,0,25,4.8,34.6,14.4s14.4,21.1,14.4,34.6V250.4z M777.4,237.8c6.5,0,12.1-2.3,16.7-6.9
			c4.7-4.7,7-10.2,7-16.7v-15.7c0-6.5-2.3-12.1-7-16.7c-4.6-4.7-10.2-7-16.7-7H777c-6.5,0-12,2.3-16.7,7c-4.6,4.6-6.9,10.2-6.9,16.7
			v15.7c0,6.5,2.3,12,6.9,16.7c4.7,4.6,10.2,6.9,16.7,6.9H777.4z"/>
	</g>
</g>
</svg>
